<?xml version="1.0" standalone="no"?>
<!DOCTYPE svg PUBLIC "-//W3C//DTD SVG 20010904//EN"
 "http://www.w3.org/TR/2001/REC-SVG-20010904/DTD/svg10.dtd">
<svg version="1.0" xmlns="http://www.w3.org/2000/svg"
 width="192.000000pt" height="192.000000pt" viewBox="0 0 192.000000 192.000000"
 preserveAspectRatio="xMidYMid meet">
<metadata>
Created by potrace 1.14, written by Peter Selinger 2001-2017
</metadata>
<g transform="translate(0.000000,192.000000) scale(0.100000,-0.100000)"
fill="#000000" stroke="none">
<path d="M0 960 l0 -960 960 0 960 0 0 960 0 960 -960 0 -960 0 0 -960z m1578
3 l2 -573 -50 0 -50 0 -2 523 -3 522 -505 0 -505 0 -5 -441 -5 -441 -30 -49
c-38 -61 -107 -105 -175 -112 l-50 -5 0 50 c0 50 0 50 36 56 51 9 101 50 114
95 6 23 10 208 10 488 0 248 3 454 7 457 3 4 277 6 607 5 l601 -3 3 -572z
m-298 307 l0 -50 -315 0 -315 0 0 50 0 50 315 0 315 0 0 -50z m-110 -145 c15
-8 38 -30 49 -49 20 -32 21 -45 19 -248 l-3 -213 -218 -3 c-242 -3 -261 1
-297 61 -18 29 -20 51 -20 250 l0 217 220 0 c175 0 227 -3 250 -15z"/>
<path d="M800 887 c0 -106 4 -157 12 -165 8 -8 59 -12 165 -12 l153 0 -2 163
-3 162 -162 3 -163 2 0 -153z"/>
</g>
</svg>
